<svg id="Capa_1" enable-background="new 0 0 512 512" height="512" viewBox="0 0 512 512" width="512" xmlns="http://www.w3.org/2000/svg" xmlns:xlink="http://www.w3.org/1999/xlink"><linearGradient id="SVGID_1_" gradientUnits="userSpaceOnUse" x1="74.98" x2="437.019" y1="437.019" y2="74.981"><stop offset="0" stop-color="#560dff"/><stop offset="1" stop-color="#73ecff"/></linearGradient><radialGradient id="SVGID_2_" cx="256" cy="256" gradientUnits="userSpaceOnUse" r="256"><stop offset="0" stop-color="#6b23ea"/><stop offset=".1366" stop-color="#6d35e9" stop-opacity=".863"/><stop offset=".4121" stop-color="#7366e6" stop-opacity=".588"/><stop offset=".7978" stop-color="#7bb2e1" stop-opacity=".202"/><stop offset="1" stop-color="#80ddde" stop-opacity="0"/></radialGradient><linearGradient id="lg1"><stop offset="0" stop-color="#389fff"/><stop offset=".1209" stop-color="#45affa"/><stop offset=".5726" stop-color="#73e9e7"/><stop offset=".79" stop-color="#85ffe0"/><stop offset=".881" stop-color="#9dffe6"/><stop offset="1" stop-color="#c2fff0"/></linearGradient><linearGradient id="SVGID_3_" gradientUnits="userSpaceOnUse" x1="-165.141" x2="673.906" xlink:href="#lg1" y1="677.141" y2="-161.906"/><linearGradient id="SVGID_4_" gradientUnits="userSpaceOnUse" x1="-290.866" x2="399.652" xlink:href="#lg1" y1="802.867" y2="112.349"/><linearGradient id="lg2"><stop offset="0" stop-color="#85ffe0"/><stop offset=".146" stop-color="#8cffe2"/><stop offset=".3516" stop-color="#9effe6"/><stop offset=".5925" stop-color="#bcffee"/><stop offset=".8583" stop-color="#e6fff9"/><stop offset="1" stop-color="#fff"/></linearGradient><linearGradient id="SVGID_5_" gradientUnits="userSpaceOnUse" x1="-115.765" x2="357.003" xlink:href="#lg2" y1="627.766" y2="154.997"/><linearGradient id="SVGID_6_" gradientUnits="userSpaceOnUse" x1="47.374" x2="399.634" xlink:href="#lg2" y1="466.505" y2="114.244"/><linearGradient id="SVGID_7_" gradientUnits="userSpaceOnUse" x1="145.395" x2="368.406" xlink:href="#lg1" y1="331.816" y2="108.805"/><linearGradient id="SVGID_8_" gradientUnits="userSpaceOnUse" x1="192.264" x2="343.514" xlink:href="#lg1" y1="284.947" y2="133.696"/><linearGradient id="SVGID_9_" gradientUnits="userSpaceOnUse" x1="199.503" x2="313.416" xlink:href="#lg1" y1="370.384" y2="256.47"/><linearGradient id="SVGID_10_" gradientUnits="userSpaceOnUse" x1="227.798" x2="333.444" xlink:href="#lg1" y1="366.12" y2="260.474"/><linearGradient id="SVGID_11_" gradientUnits="userSpaceOnUse" x1="294.406" x2="347.133" xlink:href="#lg2" y1="284.217" y2="231.49"/><linearGradient id="SVGID_12_" gradientTransform="matrix(0 -1 -1 0 447 577)" gradientUnits="userSpaceOnUse" x1="306.281" x2="359.007" xlink:href="#lg2" y1="272.341" y2="219.615"/><g><circle cx="256" cy="256" fill="url(#SVGID_1_)" r="256"/><circle cx="256" cy="256" fill="url(#SVGID_2_)" r="256"/><path d="m297.004 69.369c8.806 24.801 36.922 36.703 60.156 25.898 36.651-17.036 76.607 22.922 59.573 59.573-10.806 23.235 1.096 51.352 25.898 60.156 39.509 14.121 39.509 67.888 0 82.007-24.8 8.806-36.703 36.921-25.898 60.156 17.034 36.652-22.922 76.607-59.573 59.573-23.235-10.804-51.352 1.096-60.156 25.898-14.119 39.508-67.888 39.508-82.007 0-8.806-24.801-36.922-36.703-60.156-25.898-36.651 17.033-76.607-22.923-59.573-59.573 10.806-23.235-1.098-51.352-25.898-60.156-39.509-14.12-39.509-67.889 0-82.007 24.801-8.805 36.703-36.92 25.898-60.156-17.033-36.651 22.922-76.607 59.573-59.574 23.235 10.806 51.351-1.096 60.156-25.898 14.118-39.507 67.887-39.507 82.007.001z" fill="url(#SVGID_3_)"/><path d="m256 112.5c-78.039.178-143.324 65.46-143.5 143.5.177 78.04 65.461 143.324 143.5 143.5 78.04-.177 143.324-65.46 143.5-143.5-.176-78.037-65.461-143.326-143.5-143.5z" fill="url(#SVGID_4_)"/><path d="m256 143.25c-61.681.085-112.665 51.07-112.75 112.75.085 61.681 51.069 112.665 112.75 112.75 61.682-.086 112.664-51.069 112.75-112.75-.085-61.682-51.068-112.664-112.75-112.75z" fill="url(#SVGID_5_)"/><path d="m269.277 339.018c-61.913 0-112.802-50.792-112.656-112.589.033-10.597 1.561-20.858 4.376-30.597-11.205 17.459-17.749 38.074-17.747 60.169.085 61.681 51.069 112.665 112.75 112.75 51.176-.018 94.846-35.182 108.457-82.209-20.138 31.299-55.331 52.428-95.18 52.476z" fill="url(#SVGID_6_)"/><path d="m256 174c-25.927.007-47.061 21.194-47.12 47.19-.047 25.999 21.086 47.102 47.12 47.11 26.033-.009 47.167-21.111 47.12-47.11-.059-25.995-21.192-47.183-47.12-47.19z" fill="url(#SVGID_7_)"/><path d="m271.372 237.553c-26.039-.012-47.142-21.102-47.076-47.118.003-1.436.081-2.856.21-4.261-9.558 8.648-15.602 21.139-15.626 35.017-.047 25.999 21.086 47.102 47.12 47.11 24.596-.005 44.808-18.85 46.926-42.852-8.343 7.521-19.411 12.107-31.554 12.104z" fill="url(#SVGID_8_)"/><path d="m256 289.825c-13.297 0-24.068 10.771-24.045 24.07.024 13.298 10.794 24.106 24.045 24.105s24.021-10.808 24.045-24.105c.022-13.298-10.748-24.069-24.045-24.07z" fill="url(#SVGID_9_)"/><path d="m307.244 271.354c-8.491.006-15.377 6.888-15.386 15.376-.008 8.485 6.855 15.355 15.336 15.332 8.48-.022 15.38-6.913 15.399-15.383.018-8.471-6.859-15.331-15.349-15.325z" fill="url(#SVGID_10_)"/><path d="m322.623 248.33c-4.245-.002-7.686 3.432-7.685 7.67 0 4.239 3.44 7.673 7.685 7.67 4.245-.004 7.69-3.435 7.69-7.67-.001-4.234-3.444-7.666-7.69-7.67z" fill="url(#SVGID_11_)"/><path d="m197.063 256c0 4.239-3.44 7.673-7.685 7.67-4.246-.004-7.69-3.435-7.69-7.67 0-4.234 3.444-7.666 7.69-7.67 4.245-.002 7.684 3.433 7.685 7.67z" fill="url(#SVGID_12_)"/></g></svg>