<svg height="504pt" viewBox="-1 0 504 504.05297" width="504pt" xmlns="http://www.w3.org/2000/svg"><path d="m138.648438 504.042969c-69.933594.761719-129.261719-51.167969-137.769532-120.585938-4.023437-35.285156 6.3125-70.707031 28.679688-98.289062 23.308594-28.992188 57.292968-47.398438 94.3125-51.078125 49.976562-5.277344 87.386718-50.902344 105.324218-128.492188 14.820313-62.527344 71.039063-106.402344 135.289063-105.5859372 10.132813 0 20.238281 1.0859372 30.140625 3.2343752 36.328125 7.621094 68.039062 29.589844 87.933594 60.929687 19.175781 29.949219 25.433594 66.378907 17.355468 101.011719-66.316406 286.824219-281.765624 331.273438-346.25 338.058594-4.988281.53125-10 .800781-15.015624.796875zm0 0" fill="#65ddb9"/><path d="m138.648438 460.65625c-47.851563.75-88.625-34.585938-94.683594-82.058594-2.691406-23.792968 4.300781-47.664062 19.394531-66.25 16.097656-19.96875 39.554687-32.621094 65.085937-35.101562 40.429688-4.269532 112.8125-30.980469 143.046876-161.871094 10.726562-42.542969 49.121093-72.257812 92.992187-71.972656 7.050781 0 14.078125.757812 20.96875 2.253906 24.960937 5.199219 46.769531 20.257812 60.476563 41.757812 12.917968 20.160157 17.148437 44.683594 11.722656 68.003907-59.878906 258.851562-251.261719 298.652343-308.492188 304.679687-3.492187.371094-7 .554688-10.511718.558594zm0 0" fill="#46b29d"/><g fill="#14a085"><path d="m381.839844 182.25c0 19.167969-15.539063 34.710938-34.710938 34.710938s-34.710937-15.542969-34.710937-34.710938c0-19.171875 15.539062-34.714844 34.710937-34.714844s34.710938 15.542969 34.710938 34.714844zm0 0"/><path d="m156.214844 364.484375c0 14.378906-11.65625 26.035156-26.035156 26.035156-14.378907 0-26.035157-11.65625-26.035157-26.035156 0-14.375 11.65625-26.03125 26.035157-26.03125 14.378906 0 26.035156 11.65625 26.035156 26.03125zm0 0"/><path d="m347.128906 286.382812c0 14.378907-11.65625 26.035157-26.035156 26.035157-14.375 0-26.03125-11.65625-26.03125-26.035157 0-14.375 11.65625-26.03125 26.03125-26.03125 14.378906 0 26.035156 11.65625 26.035156 26.03125zm0 0"/><path d="m225.636719 312.375c-1.132813-.015625-2.253907-.253906-3.296875-.695312-1.050782-.441407-2.015625-1.058594-2.863282-1.820313-.785156-.832031-1.402343-1.804687-1.824218-2.863281-.441406-1.046875-.679688-2.164063-.691406-3.300782.03125-2.296874.929687-4.496093 2.515624-6.160156.84375-.769531 1.8125-1.386718 2.863282-1.832031 3.238281-1.304687 6.941406-.589844 9.460937 1.832031 1.582031 1.664063 2.480469 3.863282 2.515625 6.160156-.015625 1.136719-.25 2.253907-.695312 3.300782-.417969 1.058594-1.039063 2.03125-1.820313 2.863281-1.667969 1.578125-3.867187 2.476563-6.164062 2.515625zm0 0"/><path d="m208.28125 390.519531c-1.132812-.011719-2.253906-.25-3.296875-.695312-1.050781-.4375-2.019531-1.054688-2.863281-1.820313-.785156-.832031-1.402344-1.800781-1.824219-2.863281-.441406-1.042969-.679687-2.164063-.691406-3.300781.03125-2.296875.929687-4.496094 2.515625-6.160156.84375-.765626 1.8125-1.382813 2.863281-1.820313 3.238281-1.3125 6.941406-.597656 9.457031 1.820313 1.585938 1.664062 2.484375 3.863281 2.519532 6.160156-.015626 1.136718-.25 2.257812-.695313 3.300781-.417969 1.0625-1.039063 2.03125-1.824219 2.863281-1.660156 1.582032-3.863281 2.480469-6.160156 2.515625zm0 0"/><path d="m260.351562 364.484375c-1.136718-.015625-2.253906-.25-3.300781-.691406-1.046875-.445313-2.015625-1.0625-2.863281-1.824219-.785156-.828125-1.402344-1.800781-1.820312-2.863281-.445313-1.042969-.683594-2.164063-.695313-3.296875.035156-2.296875.933594-4.5 2.515625-6.164063.84375-.765625 1.8125-1.386719 2.863281-1.828125 3.238281-1.308594 6.945313-.589844 9.460938 1.828125 1.582031 1.664063 2.480469 3.867188 2.515625 6.164063-.011719 1.132812-.25 2.253906-.695313 3.296875-.417969 1.0625-1.035156 2.035156-1.820312 2.863281-1.667969 1.582031-3.867188 2.480469-6.160157 2.515625zm0 0"/><path d="m347.128906 104.148438c-1.132812-.015626-2.253906-.25-3.296875-.695313-1.050781-.441406-2.019531-1.058594-2.863281-1.824219-.785156-.828125-1.402344-1.800781-1.824219-2.863281-.445312-1.042969-.679687-2.164063-.691406-3.296875.03125-2.296875.929687-4.496094 2.515625-6.160156.84375-.765625 1.8125-1.382813 2.863281-1.824219 3.238281-1.308594 6.941407-.59375 9.457031 1.824219 1.585938 1.664062 2.484376 3.863281 2.519532 6.160156-.015625 1.132812-.25 2.253906-.695313 3.296875-.417969 1.0625-1.039062 2.035156-1.824219 2.863281-1.664062 1.585938-3.863281 2.484375-6.160156 2.519532zm0 0"/><path d="m407.875 138.859375c-1.132812-.019531-2.253906-.253906-3.296875-.695313-1.050781-.441406-2.019531-1.058593-2.863281-1.820312-.785156-.832031-1.402344-1.804688-1.824219-2.867188-.445313-1.042968-.679687-2.160156-.695313-3.296874.035157-2.296876.933594-4.496094 2.519532-6.160157.84375-.769531 1.8125-1.386719 2.863281-1.832031 3.238281-1.304688 6.941406-.589844 9.457031 1.832031 1.585938 1.664063 2.484375 3.863281 2.519532 6.160157-.015626 1.136718-.25 2.253906-.695313 3.296874-.417969 1.0625-1.039063 2.035157-1.824219 2.867188-1.664062 1.578125-3.863281 2.476562-6.160156 2.515625zm0 0"/></g></svg>